#!OML:ASF H:\SpeedWalk\Project 1\Capture day 2\Session 1\male.ASF
:FULLY-SPECIFIED
:DEGREES
98
root -8.420710 17.827106 -15.598070 -2.992937 -3.231749 -6.885532
lowerback 14.116212 2.611590 7.163884 
upperback 1.880140 4.769940 3.517819 
thorax -5.632754 2.216657 -1.185838 
lowerneck -12.064801 0.807297 1.837696 
upperneck 17.184227 1.698380 -4.970476 
head 7.318568 0.486085 -1.758148 
rclavicle 0.000000 0.000000 
rhumerus -22.178313 -11.744319 -81.627924 
rradius 31.920931 
rwrist -4.463839 
rhand -12.880069 -11.371385 
rfingers 0.000000 
rthumb 13.208783 -40.932989 
lclavicle 0.000000 0.000000 
lhumerus -37.941143 2.993644 88.104195 
lradius 41.516002 
lwrist -11.277793 
lhand -7.376198 15.785147 
lfingers 0.000000 
lthumb 18.509004 44.924551 
rfemur 8.257668 0.211518 32.601523 
rtibia 16.828989 
rfoot -13.871466 -6.112611 
rtoes -0.248124 
lfemur -71.152085 3.459841 -14.003171 
ltibia 75.181815 
lfoot -17.698602 -8.937431 
ltoes -1.699104 
99
root -8.417694 17.821452 -15.532500 -2.963936 -3.377623 -6.904363
lowerback 14.103816 2.646718 7.185493 
upperback 1.905615 4.815793 3.514029 
thorax -5.593459 2.240360 -1.208160 
lowerneck -12.012933 0.822484 1.837055 
upperneck 17.106369 1.719100 -4.985188 
head 7.284921 0.496163 -1.760146 
rclavicle 0.000000 0.000000 
rhumerus -22.063650 -11.572317 -81.705151 
rradius 31.991553 
rwrist -4.526378 
rhand -12.809479 -11.437652 
rfingers 0.000000 
rthumb 13.276849 -40.994824 
lclavicle 0.000000 0.000000 
lhumerus -37.948633 2.984395 88.109331 
lradius 41.463078 
lwrist -11.335520 
lhand -7.327766 15.788080 
lfingers 0.000000 
lthumb 18.555605 44.923066 
rfemur 8.437205 0.228731 32.577428 
rtibia 16.892295 
rfoot -13.905851 -5.968518 
rtoes -0.640147 
lfemur -71.014503 3.463729 -13.880323 
ltibia 74.659009 
lfoot -17.442570 -8.813997 
ltoes -1.529377 
100
root -8.414381 17.815940 -15.469204 -2.924428 -3.512692 -6.920811
lowerback 14.089545 2.678951 7.204891 
upperback 1.923606 4.857873 3.509915 
thorax -5.561497 2.261904 -1.228961 
lowerneck -11.969629 0.837459 1.837970 
upperneck 17.034670 1.739871 -5.002574 
head 7.254898 0.505977 -1.763355 
rclavicle 0.000000 0.000000 
rhumerus -21.965280 -11.391027 -81.777588 
rradius 32.060349 
rwrist -4.615399 
rhand -12.734433 -11.502708 
rfingers 0.000000 
rthumb 13.349187 -41.055106 
lclavicle 0.000000 0.000000 
lhumerus -37.960984 2.978273 88.114203 
lradius 41.410275 
lwrist -11.384533 
lhand -7.281229 15.779911 
lfingers 0.000000 
lthumb 18.600337 44.910665 
rfemur 8.578821 0.248765 32.545048 
rtibia 16.988648 
rfoot -13.944875 -5.812538 
rtoes -1.030383 
lfemur -70.888378 3.464074 -13.766107 
ltibia 74.221287 
lfoot -17.200162 -8.677272 
ltoes -1.433471 
101
root -8.411068 17.810429 -15.405908 -2.884921 -3.647760 -6.937258
lowerback 14.075274 2.711183 7.224290 
upperback 1.941597 4.899952 3.505801 
thorax -5.529535 2.283448 -1.249762 
lowerneck -11.926324 0.852433 1.838885 
upperneck 16.962971 1.760642 -5.019960 
head 7.224875 0.515791 -1.766563 
rclavicle 0.000000 0.000000 
rhumerus -21.866909 -11.209738 -81.850025 
rradius 32.129144 
rwrist -4.704419 
rhand -12.659388 -11.567763 
rfingers 0.000000 
rthumb 13.421526 -41.115388 
lclavicle 0.000000 0.000000 
lhumerus -37.973336 2.972152 88.119075 
lradius 41.357473 
lwrist -11.433546 
lhand -7.234691 15.771742 
lfingers 0.000000 
lthumb 18.645068 44.898264 
rfemur 8.720437 0.268800 32.512668 
rtibia 17.085001 
rfoot -13.983898 -5.656557 
rtoes -1.420620 
lfemur -70.762253 3.464418 -13.651891 
ltibia 73.783566 
lfoot -16.957755 -8.540548 
ltoes -1.337566 
102
root -8.407400 17.804986 -15.344539 -2.838895 -3.772597 -6.946287
lowerback 14.064466 2.740370 7.237299 
upperback 1.952542 4.937797 3.499151 
thorax -5.507525 2.302562 -1.269347 
lowerneck -11.891260 0.868258 1.841512 
upperneck 16.896546 1.782355 -5.037361 
head 7.198120 0.526026 -1.770036 
rclavicle 0.000000 0.000000 
rhumerus -21.780572 -11.028200 -81.917254 
rradius 32.190281 
rwrist -4.809907 
rhand -12.575715 -11.625209 
rfingers 0.000000 
rthumb 13.502172 -41.167488 
lclavicle 0.000000 0.000000 
lhumerus -37.992091 2.969479 88.122019 
lradius 41.303575 
lwrist -11.477632 
lhand -7.190199 15.759977 
lfingers 0.000000 
lthumb 18.687861 44.882334 
rfemur 8.832454 0.291139 32.467538 
rtibia 17.208851 
rfoot -14.026472 -5.491661 
rtoes -1.800413 
lfemur -70.651008 3.465682 -13.559022 
ltibia 73.445146 
lfoot -16.656033 -8.394908 
ltoes -1.308761 
103
root -8.403731 17.799543 -15.283181 -2.792835 -3.897380 -6.955277
lowerback 14.053675 2.769542 7.250276 
upperback 1.963451 4.975619 3.492488 
thorax -5.485566 2.321662 -1.288926 
lowerneck -11.856240 0.884088 1.844148 
upperneck 16.830149 1.804073 -5.054763 
head 7.171381 0.536264 -1.773509 
rclavicle 0.000000 0.000000 
rhumerus -21.694298 -10.846659 -81.984456 
rradius 32.251378 
rwrist -4.915480 
rhand -12.491996 -11.682614 
rfingers 0.000000 
rthumb 13.582862 -41.219546 
lclavicle 0.000000 0.000000 
lhumerus -38.010879 2.966824 88.124953 
lradius 41.249672 
lwrist -11.521692 
lhand -7.145718 15.748193 
lfingers 0.000000 
lthumb 18.730643 44.866385 
rfemur 8.944317 0.313489 32.422342 
rtibia 17.332843 
rfoot -14.069065 -5.326717 
rtoes -2.180152 
lfemur -70.539841 3.466950 -13.466265 
ltibia 73.107243 
lfoot -16.354002 -8.249221 
ltoes -1.280304 
104
root -8.399859 17.794145 -15.223310 -2.744212 -4.011040 -6.957947
lowerback 14.049740 2.795335 7.255973 
upperback 1.969350 5.008907 3.484434 
thorax -5.473508 2.338230 -1.305727 
lowerneck -11.827599 0.900598 1.849118 
upperneck 16.767616 1.826467 -5.072790 
head 7.147120 0.546808 -1.777559 
rclavicle 0.000000 0.000000 
rhumerus -21.622646 -10.656674 -82.047608 
rradius 32.317677 
rwrist -5.041922 
rhand -12.397354 -11.741626 
rfingers 0.000000 
rthumb 13.674043 -41.272405 
lclavicle 0.000000 0.000000 
lhumerus -38.032644 2.969452 88.125542 
lradius 41.190308 
lwrist -11.564014 
lhand -7.104712 15.721453 
lfingers 0.000000 
lthumb 18.770114 44.835848 
rfemur 9.035819 0.336699 32.368562 
rtibia 17.476332 
rfoot -14.114196 -5.161229 
rtoes -2.540286 
lfemur -70.450456 3.475156 -13.399689 
ltibia 72.882494 
lfoot -15.956788 -8.079972 
ltoes -1.231456 
105
root -8.395961 17.788752 -15.163638 -2.695244 -4.123210 -6.959770
lowerback 14.046724 2.820676 7.260694 
upperback 1.974578 5.041587 3.476195 
thorax -5.462778 2.354458 -1.322156 
lowerneck -11.799813 0.917199 1.854401 
upperneck 16.705601 1.848951 -5.090901 
head 7.123192 0.557394 -1.781686 
rclavicle 0.000000 0.000000 
rhumerus -21.552953 -10.465557 -82.110217 
rradius 32.384673 
rwrist -5.171162 
rhand -12.301247 -11.800853 
rfingers 0.000000 
rthumb 13.766631 -41.325371 
lclavicle 0.000000 0.000000 
lhumerus -38.054809 2.972788 88.125816 
lradius 41.130213 
lwrist -11.606104 
lhand -7.064171 15.692707 
lfingers 0.000000 
lthumb 18.809142 44.803356 
rfemur 9.124591 0.360025 32.313631 
rtibia 17.622435 
rfoot -14.159668 -4.995667 
rtoes -2.897792 
lfemur -70.363992 3.484291 -13.336623 
ltibia 72.672914 
lfoot -15.546814 -7.907565 
ltoes -1.179874 
106
root -8.391913 17.783604 -15.105000 -2.644814 -4.231071 -6.954229
lowerback 14.046935 2.845208 7.256853 
upperback 1.977100 5.072355 3.466099 
thorax -5.457405 2.369660 -1.335789 
lowerneck -11.777592 0.934172 1.862218 
upperneck 16.645078 1.871679 -5.110293 
head 7.100809 0.568064 -1.786651 
rclavicle 0.000000 0.000000 
rhumerus -21.489618 -10.279107 -82.167855 
rradius 32.450433 
rwrist -5.297732 
rhand -12.192405 -11.857149 
rfingers 0.000000 
rthumb 13.871543 -41.374505 
lclavicle 0.000000 0.000000 
lhumerus -38.078742 2.978024 88.125133 
lradius 41.067855 
lwrist -11.645741 
lhand -7.023798 15.673780 
lfingers 0.000000 
lthumb 18.847964 44.780643 
rfemur 9.200997 0.387327 32.250463 
rtibia 17.779806 
rfoot -14.204573 -4.832257 
rtoes -3.240816 
lfemur -70.301559 3.506903 -13.301016 
ltibia 72.571655 
lfoot -15.077493 -7.699937 
ltoes -1.038887 
107
root -8.387800 17.778564 -15.046819 -2.593739 -4.337030 -6.945435
lowerback 14.048571 2.869384 7.249231 
upperback 1.978426 5.102278 3.455182 
thorax -5.454398 2.384410 -1.348186 
lowerneck -11.757829 0.951309 1.871153 
upperneck 16.585214 1.894515 -5.130250 
head 7.079109 0.578773 -1.791988 
rclavicle 0.000000 0.000000 
rhumerus -21.429091 -10.094717 -82.223298 
rradius 32.515647 
rwrist -5.423124 
rhand -12.077938 -11.912150 
rfingers 0.000000 
rthumb 13.981898 -41.421945 
lclavicle 0.000000 0.000000 
lhumerus -38.103457 2.984098 88.124028 
lradius 41.004498 
lwrist -11.684295 
lhand -6.983498 15.659190 
lfingers 0.000000 
lthumb 18.886694 44.762250 
rfemur 9.271941 0.416385 32.183658 
rtibia 17.942156 
rfoot -14.249228 -4.669797 
rtoes -3.577444 
lfemur -70.249742 3.535469 -13.277539 
ltibia 72.518246 
lfoot -14.581956 -7.476751 
ltoes -0.858404 
